<svg width="204.91748046875px" height="57.52724609375px" xmlns="http://www.w3.org/2000/svg" viewBox="147.541259765625 46.236376953125 204.91748046875 57.52724609375" style="background-image: none;" preserveAspectRatio="xMidYMid"><defs><linearGradient id="editing-gradient-gradient" x1="0" x2="1" y1="0.5" y2="0.5" gradientUnits="objectBoundingBox"><stop offset="0" stop-color="#689cc5"></stop><stop offset="1" stop-color="#93dbe9"></stop></linearGradient></defs><g><g transform="translate(182.39999663829803, 84.32937431335449)"><path d="M4.79 0L0.37-16.44L2.34-16.44L5.52-4.02L6.08-1.40L6.70-4.02L10.01-16.44L12.15-16.44L16.09-1.31L16.66-4.06L19.69-16.44L21.62-16.44L17.41 0L14.68 0L11.54-11.75L11.05-14.52L10.55-11.75L7.30 0L4.79 0ZM33.84-2.21L34.36-0.68L34.36-0.68Q32.14 0.21 29.46 0.21L29.46 0.21L29.46 0.21Q27.90 0.21 26.81-0.11L26.81-0.11L26.81-0.11Q25.08-0.60 24.51-2.15L24.51-2.15L24.51-2.15Q23.99-3.60 23.99-6.45L23.99-6.45L23.99-6.99L23.99-6.99Q23.99-10.40 25.41-11.77L25.41-11.77L25.41-11.77Q26.68-13.00 29.67-13.00L29.67-13.00L29.67-13.00Q32.58-13.00 33.64-11.56L33.64-11.56L33.64-11.56Q34.16-10.86 34.33-9.87L34.33-9.87L34.33-9.87Q34.49-8.87 34.49-7.97L34.49-7.97L34.49-7.97Q34.49-6.56 34.43-5.79L34.43-5.79L34.43-5.79Q32.91-5.73 31.71-5.73L31.71-5.73L31.71-5.73Q31.71-5.73 29.98-5.73L29.98-5.73L29.98-5.73Q27.27-5.73 25.81-5.96L25.81-5.96L25.81-5.96Q25.81-3.49 26.44-2.51L26.44-2.51L26.44-2.51Q27.20-1.32 29.48-1.32L29.48-1.32L29.48-1.32Q31.75-1.32 33.84-2.21L33.84-2.21ZM25.81-7.22L32.68-7.22L32.68-8.25L32.68-8.25Q32.68-9.94 32.02-10.66L32.02-10.66L32.02-10.66Q31.29-11.46 29.50-11.46L29.50-11.46L29.50-11.46Q27.35-11.46 26.57-10.53L26.57-10.53L26.57-10.53Q25.81-9.64 25.81-7.22L25.81-7.22ZM40.68-1.19L40.68-1.19L40.46 0L38.94 0L38.94-18.28L40.72-18.46L40.72-11.56L40.72-11.56Q42.95-13.00 45.02-13.00L45.02-13.00L45.02-13.00Q47.90-13.00 48.67-11.23L48.67-11.23L48.67-11.23Q49.16-10.11 49.22-8.09L49.22-8.09L49.22-8.09Q49.24-7.11 49.24-5.94L49.24-5.94L49.24-5.08L49.24-5.08Q49.24-3.61 49.05-2.87L49.05-2.87L49.05-2.87Q48.87-2.13 48.58-1.60L48.58-1.60L48.58-1.60Q48.29-1.06 47.78-0.67L47.78-0.67L47.78-0.67Q46.69 0.21 44.64 0.21L44.64 0.21L44.64 0.21Q42.60 0.21 40.68-1.19ZM40.72-10.14L40.72-2.60L40.72-2.60Q43.00-1.36 44.56-1.36L44.56-1.36L44.69-1.36L44.69-1.36Q46.52-1.36 47.05-2.38L47.05-2.38L47.05-2.38Q47.33-2.90 47.39-3.73L47.39-3.73L47.39-3.73Q47.46-4.55 47.46-5.71L47.46-5.71L47.46-7.26L47.46-7.26Q47.46-9.66 46.91-10.48L46.91-10.48L46.91-10.48Q46.37-11.31 44.87-11.31L44.87-11.31L44.60-11.31L44.60-11.31Q43.26-11.31 41.49-10.52L41.49-10.52L41.49-10.52Q41.02-10.31 40.72-10.14L40.72-10.14ZM64.94-1.33L65.03-1.33L65.03-1.33Q66.78-1.33 68.56-2.01L68.56-2.01L69.03-0.53L69.03-0.53Q68.21-0.12 67.06 0.05L67.06 0.05L67.06 0.05Q65.91 0.21 65.03 0.21L65.03 0.21L64.88 0.21L64.88 0.21Q61.06 0.21 59.76-1.98L59.76-1.98L59.76-1.98Q58.96-3.31 58.79-5.56L58.79-5.56L58.79-5.56Q58.72-6.65 58.72-7.94L58.72-7.94L58.72-7.94Q58.72-9.23 58.79-10.39L58.79-10.39L58.79-10.39Q58.86-11.56 59.07-12.53L59.07-12.53L59.07-12.53Q59.29-13.50 59.69-14.27L59.69-14.27L59.69-14.27Q60.10-15.03 60.79-15.55L60.79-15.55L60.79-15.55Q62.19-16.65 64.85-16.65L64.85-16.65L64.85-16.65Q66.57-16.65 67.62-16.43L67.62-16.43L67.62-16.43Q68.66-16.21 69.03-16.07L69.03-16.07L68.55-14.37L68.55-14.37Q66.45-15.10 64.96-15.10L64.96-15.10L64.96-15.10Q63.48-15.10 62.68-14.74L62.68-14.74L62.68-14.74Q61.88-14.38 61.42-13.56L61.42-13.56L61.42-13.56Q60.64-12.14 60.64-8.15L60.64-8.15L60.64-7.36L60.64-7.36Q60.64-4.08 61.49-2.78L61.49-2.78L61.49-2.78Q62.43-1.33 64.94-1.33L64.94-1.33ZM76.56-11.23L76.56-11.23L76.56-11.23Q75.18-11.23 73.76-9.85L73.76-9.85L73.76 0L71.97 0L71.97-12.78L73.54-12.78L73.71-11.09L73.71-11.09Q74.22-11.87 74.80-12.31L74.80-12.31L74.80-12.31Q75.39-12.75 75.76-12.85L75.76-12.85L75.76-12.85Q76.30-13.00 76.79-13.00L76.79-13.00L76.79-13.00Q77.27-13.00 78.00-12.80L78.00-12.80L77.84-11.10L77.84-11.10Q77.29-11.23 76.56-11.23ZM90.93-8.54L90.93-4.53L90.93-4.53Q90.93-2.40 91.14-0.09L91.14-0.09L89.55 0.04L89.28-1.45L89.28-1.45Q87.91-0.35 85.67 0.08L85.67 0.08L85.67 0.08Q84.94 0.21 84.37 0.21L84.37 0.21L84.37 0.21Q83.80 0.21 83.36 0.16L83.36 0.16L83.36 0.16Q82.93 0.11 82.53-0.05L82.53-0.05L82.53-0.05Q82.12-0.20 81.78-0.48L81.78-0.48L81.78-0.48Q81.44-0.76 81.18-1.22L81.18-1.22L81.18-1.22Q80.63-2.20 80.63-3.57L80.63-3.57L80.63-3.57Q80.63-4.94 80.83-5.70L80.83-5.70L80.83-5.70Q81.03-6.46 81.49-6.96L81.49-6.96L81.49-6.96Q82.40-7.96 84.56-7.96L84.56-7.96L84.56-7.96Q86.72-7.96 89.17-7.14L89.17-7.14L89.17-8.54L89.17-8.54Q89.17-10.87 87.25-11.30L87.25-11.30L87.25-11.30Q86.63-11.44 85.82-11.44L85.82-11.44L85.82-11.44Q83.98-11.44 82.01-10.71L82.01-10.71L81.61-12.26L81.61-12.26Q82.16-12.62 84.40-12.91L84.40-12.91L84.40-12.91Q85.11-13.00 86.10-13.00L86.10-13.00L86.10-13.00Q87.10-13.00 88.05-12.76L88.05-12.76L88.05-12.76Q89.01-12.53 89.64-11.99L89.64-11.99L89.64-11.99Q90.93-10.92 90.93-8.54L90.93-8.54ZM89.13-5.80L89.13-5.80L89.13-5.80Q86.61-6.43 84.49-6.43L84.49-6.43L84.49-6.43Q83.18-6.43 82.75-5.68L82.75-5.68L82.75-5.68Q82.46-5.16 82.46-4.13L82.46-4.13L82.46-4.13Q82.46-3.09 82.57-2.63L82.57-2.63L82.57-2.63Q82.68-2.17 82.94-1.87L82.94-1.87L82.94-1.87Q83.45-1.30 84.61-1.30L84.61-1.30L84.61-1.30Q86.42-1.30 88.20-2.23L88.20-2.23L88.20-2.23Q88.75-2.51 89.19-2.86L89.19-2.86L89.19-2.86Q89.13-4.02 89.13-5.80ZM99.68-16.93L99.68-16.93L99.68-16.93Q98.85-16.93 98.42-16.57L98.42-16.57L98.42-16.57Q97.99-16.21 97.99-15.15L97.99-15.15L97.99-15.15Q97.99-14.09 98.39-12.78L98.39-12.78L101.43-12.78L101.43-11.29L98.37-11.29L98.37 0L96.64 0L96.64-11.29L94.50-11.29L94.50-12.61L96.62-12.78L96.62-12.78Q96.48-13.07 96.35-14.04L96.35-14.04L96.35-14.04Q96.22-15.01 96.22-15.43L96.22-15.43L96.22-15.43Q96.22-18.48 99.78-18.48L99.78-18.48L99.78-18.48Q101.07-18.48 102.22-18.20L102.22-18.20L101.90-16.60L101.90-16.60Q100.50-16.93 99.68-16.93ZM110.66-2.01L111.27-0.61L111.27-0.61Q109.52 0.21 108.03 0.21L108.03 0.21L108.03 0.21Q105.35 0.21 104.98-2.08L104.98-2.08L104.98-2.08Q104.90-2.63 104.90-3.67L104.90-3.67L104.90-11.29L103.35-11.29L103.35-12.61L104.90-12.78L105.18-15.71L106.67-15.71L106.67-12.78L110.40-12.78L110.40-11.29L106.67-11.29L106.67-3.71L106.67-3.71Q106.67-2.38 106.86-2.02L106.86-2.02L106.86-2.02Q107.22-1.35 108.28-1.35L108.28-1.35L108.28-1.35Q109.34-1.35 110.66-2.01L110.66-2.01ZM123.63-2.21L124.16-0.68L124.16-0.68Q121.93 0.21 119.25 0.21L119.25 0.21L119.25 0.21Q117.69 0.21 116.61-0.11L116.61-0.11L116.61-0.11Q114.88-0.60 114.31-2.15L114.31-2.15L114.31-2.15Q113.78-3.60 113.78-6.45L113.78-6.45L113.78-6.99L113.78-6.99Q113.78-10.40 115.20-11.77L115.20-11.77L115.20-11.77Q116.48-13.00 119.46-13.00L119.46-13.00L119.46-13.00Q122.38-13.00 123.44-11.56L123.44-11.56L123.44-11.56Q123.95-10.86 124.12-9.87L124.12-9.87L124.12-9.87Q124.29-8.87 124.29-7.97L124.29-7.97L124.29-7.97Q124.29-6.56 124.22-5.79L124.22-5.79L124.22-5.79Q122.71-5.73 121.50-5.73L121.50-5.73L121.50-5.73Q121.50-5.73 119.78-5.73L119.78-5.73L119.78-5.73Q117.07-5.73 115.61-5.96L115.61-5.96L115.61-5.96Q115.61-3.49 116.23-2.51L116.23-2.51L116.23-2.51Q116.99-1.32 119.27-1.32L119.27-1.32L119.27-1.32Q121.55-1.32 123.63-2.21L123.63-2.21ZM115.61-7.22L122.47-7.22L122.47-8.25L122.47-8.25Q122.47-9.94 121.82-10.66L121.82-10.66L121.82-10.66Q121.09-11.46 119.29-11.46L119.29-11.46L119.29-11.46Q117.14-11.46 116.36-10.53L116.36-10.53L116.36-10.53Q115.61-9.64 115.61-7.22L115.61-7.22ZM133.39-11.23L133.39-11.23L133.39-11.23Q132.01-11.23 130.58-9.85L130.58-9.85L130.58 0L128.80 0L128.80-12.78L130.37-12.78L130.54-11.09L130.54-11.09Q131.04-11.87 131.63-12.31L131.63-12.31L131.63-12.31Q132.21-12.75 132.59-12.85L132.59-12.85L132.59-12.85Q133.13-13.00 133.61-13.00L133.61-13.00L133.61-13.00Q134.09-13.00 134.83-12.80L134.83-12.80L134.66-11.10L134.66-11.10Q134.12-11.23 133.39-11.23Z" fill="url(#editing-gradient-gradient)"></path></g></g><style>text {
  font-size: 64px;
  font-family: Arial Black;
  dominant-baseline: central;
  text-anchor: middle;
}</style></svg>