<?xml version="1.0" standalone="no"?>
<!DOCTYPE svg PUBLIC "-//W3C//DTD SVG 20010904//EN"
 "http://www.w3.org/TR/2001/REC-SVG-20010904/DTD/svg10.dtd">
<svg version="1.0" xmlns="http://www.w3.org/2000/svg"
 width="1024.000000pt" height="680.000000pt" viewBox="0 0 1024.000000 680.000000"
 preserveAspectRatio="xMidYMid meet">

<g transform="translate(0.000000,680.000000) scale(0.100000,-0.100000)"
fill="#000000" stroke="none">
<path d="M8056 6664 c-164 -40 -293 -156 -352 -318 -29 -79 -33 -221 -9 -299
52 -171 199 -311 363 -346 196 -41 390 29 507 184 73 97 97 175 96 312 -2 311
-300 541 -605 467z"/>
<path d="M6202 5754 c-29 -20 -28 -50 2 -69 19 -13 29 -14 45 -5 28 14 29 65
2 80 -25 13 -22 13 -49 -6z"/>
<path d="M3638 5693 c-22 -5 -35 -50 -21 -72 13 -20 50 -26 69 -11 21 18 18
67 -5 80 -11 5 -21 9 -23 9 -2 -1 -11 -3 -20 -6z"/>
<path d="M3830 5680 c-24 -24 -24 -29 -4 -58 23 -33 65 -26 79 12 8 24 6 31
-14 47 -29 24 -36 24 -61 -1z"/>
<path d="M4048 5693 c-22 -5 -35 -50 -21 -72 13 -20 50 -26 69 -11 21 18 18
67 -5 80 -11 5 -21 9 -23 9 -2 -1 -11 -3 -20 -6z"/>
<path d="M6188 5614 c-29 -15 -48 -42 -48 -68 0 -13 15 -16 90 -16 75 0 90 3
90 16 0 26 -19 53 -50 69 -36 18 -47 18 -82 -1z"/>
<path d="M6905 5284 c-5 -1 -26 -5 -46 -8 -80 -14 -162 -96 -175 -174 l-6 -41
47 -3 c30 -2 51 -9 55 -18 4 -8 15 -32 23 -52 9 -20 25 -42 36 -47 16 -9 22
-6 40 24 33 56 101 57 115 0 8 -33 -18 -95 -44 -102 -27 -7 -25 -32 5 -77 17
-25 25 -51 25 -79 0 -53 21 -84 72 -107 l39 -17 -51 -7 c-88 -12 -281 -66
-370 -103 -189 -81 -342 -183 -496 -333 l-83 -82 23 -37 c53 -83 132 -255 190
-413 10 -27 21 -48 25 -48 10 0 147 85 203 127 27 19 48 31 48 26 0 -5 11 -72
24 -148 60 -345 61 -361 41 -422 -19 -54 -19 -56 0 -69 10 -8 27 -12 37 -8 25
7 23 -2 -16 -141 -18 -66 -68 -244 -111 -395 -42 -151 -106 -378 -142 -504
-100 -355 -106 -385 -106 -521 0 -98 6 -148 33 -275 35 -168 93 -445 192 -917
55 -265 65 -303 83 -307 11 -3 174 -3 363 1 288 5 342 8 342 21 0 8 -31 213
-70 456 -38 242 -76 486 -85 541 -8 55 -28 184 -44 287 l-29 187 30 98 c16 54
36 118 43 143 7 25 23 77 36 115 l23 70 8 -55 c42 -274 62 -356 198 -820 55
-190 141 -484 191 -655 50 -171 96 -328 103 -350 l13 -40 352 -3 c333 -2 352
-1 347 15 -3 10 -17 68 -31 128 -14 61 -94 403 -178 760 l-153 650 221 5 c243
5 246 6 272 68 10 25 13 83 13 228 -1 108 1 198 4 202 3 3 6 74 6 159 0 201 7
193 -168 193 l-128 0 -12 48 c-35 133 -182 395 -208 369 -3 -3 9 -27 28 -52
78 -110 148 -251 164 -334 l7 -32 -129 3 -129 3 -3 85 c-3 76 8 178 24 238 4
12 2 22 -4 22 -19 0 -36 -105 -37 -227 l0 -123 -58 0 c-59 0 -59 0 -53 27 25
124 31 190 31 343 0 192 -14 280 -60 371 -14 26 -25 63 -25 82 0 18 -25 140
-55 271 -30 130 -55 242 -55 249 0 7 43 46 94 87 52 41 95 80 95 86 1 17 -47
131 -96 228 -57 114 -102 185 -153 239 l-39 43 49 29 c66 38 69 69 10 92 -49
19 -58 45 -41 115 18 81 -5 102 -139 132 -137 31 -150 36 -150 55 0 10 9 44
20 76 38 110 20 190 -52 236 -28 17 -44 20 -111 16 -78 -5 -79 -5 -115 28 -21
18 -50 39 -67 47 -29 15 -100 28 -120 22z m1250 -3037 c9 -13 15 -45 15 -81 0
-70 17 -96 65 -96 36 0 59 21 69 65 11 46 34 65 77 65 48 0 69 -27 69 -88 0
-57 37 -97 81 -88 l29 6 0 -201 0 -201 -29 -29 -29 -29 -216 0 c-215 0 -216 0
-221 23 -3 12 -22 96 -44 187 -70 297 -66 272 -48 282 39 21 47 39 47 101 0
40 6 71 15 84 26 36 95 36 120 0z"/>
<path d="M3851 4658 c0 -473 2 -557 13 -523 19 58 59 127 141 240 128 176 242
269 365 296 l60 13 0 98 0 98 85 0 85 0 0 -65 0 -65 115 0 115 0 0 230 0 230
633 3 c380 1 184 3 -490 5 l-1123 2 1 -562z"/>
<path d="M3087 5002 c-15 -17 -17 -59 -17 -399 0 -355 1 -381 18 -396 10 -10
26 -17 35 -17 16 0 17 34 17 415 0 397 -1 415 -18 415 -11 0 -26 -8 -35 -18z"/>
<path d="M5112 4853 l3 -128 29 -3 c36 -4 44 4 51 53 9 54 27 72 62 59 19 -6
29 -18 31 -34 5 -34 20 -50 46 -50 33 0 46 19 46 65 0 43 22 75 52 75 26 0 48
-35 48 -78 0 -48 22 -76 54 -66 29 9 30 9 36 62 4 41 9 48 35 57 49 16 55 24
55 71 l0 44 -275 0 -276 0 3 -127z"/>
<path d="M4468 4693 c6 -2 18 -2 25 0 6 3 1 5 -13 5 -14 0 -19 -2 -12 -5z"/>
<path d="M6890 4687 c-19 -6 -36 -11 -38 -12 -1 -1 4 -19 11 -39 12 -36 14
-36 29 -19 16 17 42 74 36 78 -2 1 -19 -3 -38 -8z"/>
<path d="M4538 4683 c7 -3 16 -2 19 1 4 3 -2 6 -13 5 -11 0 -14 -3 -6 -6z"/>
<path d="M4570 4677 c0 -3 15 -10 32 -16 18 -6 28 -7 23 -2 -12 10 -55 25 -55
18z"/>
<path d="M4720 4576 c25 -28 67 -81 94 -118 26 -38 50 -68 53 -68 11 0 -87
129 -137 180 -50 52 -51 52 -10 6z"/>
<path d="M5106 4583 c1 -21 2 -44 3 -50 1 -10 30 -13 111 -13 l110 0 0 -116
c0 -100 2 -115 14 -104 8 6 25 10 38 8 17 -2 23 2 23 17 0 13 6 20 18 19 15
-2 17 9 17 87 l0 89 110 0 110 0 0 50 0 50 -277 0 -278 0 1 -37z"/>
<path d="M4912 4320 c12 -19 50 -62 83 -96 l60 -61 -50 56 c-28 31 -65 74 -83
96 -30 36 -31 37 -10 5z"/>
<path d="M6033 4232 c-55 -36 -68 -52 -18 -22 59 35 81 50 70 49 -6 0 -29 -12
-52 -27z"/>
<path d="M5944 4174 c-18 -14 -18 -15 4 -4 12 6 22 13 22 15 0 8 -5 6 -26 -11z"/>
<path d="M5085 4140 c10 -11 20 -20 23 -20 3 0 -3 9 -13 20 -10 11 -20 20 -23
20 -3 0 3 -9 13 -20z"/>
<path d="M5894 4144 c-18 -14 -18 -15 4 -4 12 6 22 13 22 15 0 8 -5 6 -26 -11z"/>
<path d="M5844 4114 c-18 -14 -18 -15 4 -4 12 6 22 13 22 15 0 8 -5 6 -26 -11z"/>
<path d="M5150 4095 c0 -7 81 -47 86 -43 2 3 -17 14 -41 26 -25 12 -45 20 -45
17z"/>
<path d="M5760 4070 c-30 -16 -51 -29 -47 -30 10 0 107 49 107 55 0 7 1 7 -60
-25z"/>
<path d="M5308 4023 c7 -3 16 -2 19 1 4 3 -2 6 -13 5 -11 0 -14 -3 -6 -6z"/>
<path d="M5348 4013 c7 -3 16 -2 19 1 4 3 -2 6 -13 5 -11 0 -14 -3 -6 -6z"/>
<path d="M3092 3814 c-22 -15 -22 -17 -22 -298 0 -261 1 -284 18 -299 10 -10
26 -17 35 -17 16 0 17 27 17 315 0 336 0 333 -48 299z"/>
<path d="M4328 3493 c265 -2 699 -2 965 0 265 1 48 2 -483 2 -531 0 -748 -1
-482 -2z"/>
<path d="M3850 2480 c-30 -30 -27 -83 6 -109 35 -28 69 -26 99 4 30 30 32 64
4 99 -26 33 -79 36 -109 6z"/>
<path d="M4783 2423 c181 -2 473 -2 650 0 177 1 30 2 -328 2 -357 0 -502 -1
-322 -2z"/>
<path d="M4873 2313 c230 -2 604 -2 830 0 227 1 39 2 -418 2 -456 0 -642 -1
-412 -2z"/>
<path d="M1689 2074 c-30 -9 -39 -52 -39 -193 0 -125 2 -141 21 -165 46 -58
119 -15 119 70 0 55 26 84 74 84 37 0 76 -36 76 -69 0 -35 30 -61 70 -61 48 0
60 18 60 93 0 72 26 107 79 107 56 0 75 -26 79 -111 4 -57 8 -72 25 -84 55
-38 107 -3 107 73 1 63 23 92 78 99 l42 6 2 -269 c3 -359 3 -362 -17 -385 -17
-18 -34 -19 -382 -19 -350 0 -364 1 -383 20 -19 19 -20 33 -20 225 0 130 -4
205 -10 205 -17 0 -13 -374 4 -415 l15 -35 -83 0 c-73 0 -85 -3 -104 -23 -29
-31 -29 -81 0 -101 18 -13 57 -16 214 -16 l192 0 -154 -533 c-85 -292 -157
-542 -160 -554 -4 -16 -2 -23 7 -23 9 0 27 45 50 128 20 70 92 319 160 555
l123 428 145 -3 145 -3 52 -180 c29 -99 100 -345 158 -547 58 -201 106 -369
106 -372 0 -3 7 -6 16 -6 9 0 14 6 11 13 -3 8 -50 171 -106 363 -145 506 -199
693 -206 715 -6 18 1 19 189 19 183 0 197 1 216 20 27 27 25 66 -5 95 -22 22
-32 25 -105 25 l-81 0 15 22 c14 19 16 73 16 388 l0 367 -26 24 -26 24 -371 2
c-205 0 -379 -1 -388 -3z"/>
<path d="M4873 1893 c230 -2 604 -2 830 0 227 1 39 2 -418 2 -456 0 -642 -1
-412 -2z"/>
<path d="M4778 1783 c177 -2 467 -2 645 0 177 1 32 2 -323 2 -355 0 -500 -1
-322 -2z"/>
<path d="M4873 1663 c230 -2 604 -2 830 0 227 1 39 2 -418 2 -456 0 -642 -1
-412 -2z"/>
<path d="M4664 340 c-47 -30 -61 -73 -55 -173 0 -16 15 -43 35 -65 l34 -37
276 -3 c307 -3 325 0 361 61 27 44 27 141 1 180 -37 55 -51 57 -348 57 -256 0
-275 -2 -304 -20z m405 -84 l43 -44 -44 -46 c-25 -25 -48 -46 -52 -46 -14 0
-4 26 21 52 l27 28 -112 0 c-68 0 -112 4 -112 10 0 6 46 10 117 10 l117 0 -32
29 c-30 28 -41 51 -24 51 4 0 27 -20 51 -44z"/>
</g>
</svg>
